<?xml version="1.0" encoding="UTF-8"?><svg id="Layer_1" xmlns="http://www.w3.org/2000/svg" viewBox="0 0 709.81 285.54"><defs><style>.cls-1{fill:#fff;}.cls-2{fill:#c1bfbf;}</style></defs><path class="cls-1" d="m136.91,63.58h-66.26v60.71h60.9c25.96,0,25.96,37.66,0,37.66h-60.9v60.71h66.26c43.93,0,79.53-35.61,79.53-79.53h0c0-43.93-35.61-79.53-79.53-79.53Z"/><circle class="cls-1" cx="222.65" cy="73.99" r="13.8"/><path class="cls-1" d="m355.95,183.21h-10.19c-.95,0-1.71-.77-1.71-1.71v-46.5c0-.95.77-1.71,1.71-1.71h10.19c.95,0,1.71.77,1.71,1.71v46.5c0,.95-.77,1.71-1.71,1.71Z"/><path class="cls-1" d="m419.08,183.21h-10.19c-.95,0-1.71-.77-1.71-1.71v-27.45c0-3.6-.64-6.3-1.92-8.11-1.28-1.8-3.32-2.7-6.12-2.7-3.81,0-6.57,1.27-8.26,3.82-1.7,2.55-2.55,6.77-2.55,12.66v21.78c0,.95-.77,1.71-1.71,1.71h-10.19c-.95,0-1.71-.77-1.71-1.71v-46.5c0-.95.77-1.71,1.71-1.71h7.4c.76,0,1.44.51,1.65,1.24l1.47,5.14h.76c1.52-2.41,3.61-4.23,6.27-5.47,2.66-1.24,5.69-1.85,9.09-1.85,5.81,0,10.21,1.57,13.22,4.71,3.01,3.14,4.51,7.67,4.51,13.6v30.84c0,.95-.77,1.71-1.71,1.71Z"/><path class="cls-1" d="m270.08,134.53v-16.83h30.74c14.3,0,26.06,11.67,26.06,26.06s-11.77,26.06-26.06,26.06h-13.91v13.37h-16.82v-30.01h30.74c12.16,0,12.16-18.67,0-18.67h-30.74Z"/><rect class="cls-1" x="434.8" y="152.57" width="37.57" height="10.61" rx="2" ry="2"/><rect class="cls-1" x="434.8" y="132.34" width="37.57" height="10.39" rx="1.99" ry="1.99"/><rect class="cls-1" x="434.8" y="173.65" width="37.57" height="10.45" rx="1.9" ry="1.9"/><path class="cls-1" d="m505.72,181.65l-22.93-64.14c-.49-1.36.52-2.79,1.97-2.79h.74c.89,0,1.68.56,1.97,1.4l19.43,55.22c.65,1.86,3.29,1.86,3.94,0l19.43-55.22c.29-.84,1.08-1.4,1.97-1.4h.85c1.45,0,2.45,1.43,1.97,2.8l-23.04,64.14c-.3.83-1.08,1.38-1.97,1.38h-2.36c-.88,0-1.67-.55-1.97-1.39Z"/><path class="cls-1" d="m550.48,176.93c-4.23-4.61-6.34-10.75-6.34-18.43s2.11-14.29,6.34-19.13c4.15-4.76,9.72-7.14,16.71-7.14s12.48,2.38,16.71,7.14c4.15,4.84,6.22,11.22,6.22,19.13s-2.07,13.82-6.22,18.43c-4.22,4.61-9.79,6.91-16.71,6.91s-12.56-2.3-16.71-6.91Zm30.07-2.77c3.3-3.92,4.95-9.14,4.95-15.67s-1.65-12.14-4.95-16.13c-3.38-4.07-7.83-6.11-13.37-6.11s-10.06,2.04-13.37,6.11c-3.38,3.99-5.07,9.37-5.07,16.13s1.69,11.75,5.07,15.67c3.3,3.92,7.76,5.88,13.37,5.88s9.98-1.96,13.37-5.88Z"/><path class="cls-1" d="m615.88,156.01l-13.37-18.76c-.99-1.38,0-3.3,1.7-3.3h.07c.67,0,1.29.32,1.69.85l12.2,16.65c.84,1.14,2.54,1.14,3.37,0l12.09-16.64c.39-.54,1.02-.86,1.69-.86h0c1.71,0,2.7,1.94,1.69,3.32l-13.71,18.72c-.54.73-.54,1.73,0,2.46l15.47,21.26c1,1.38.02,3.32-1.69,3.32h-.04c-.65,0-1.27-.31-1.66-.83l-14.26-18.81c-.85-1.12-2.54-1.1-3.36.04l-13.51,18.73c-.39.54-1.02.87-1.69.87h-.17c-1.7,0-2.69-1.92-1.7-3.3l15.21-21.29c.52-.73.52-1.7,0-2.43Z"/><circle class="cls-1" cx="350.86" cy="119.98" r="7.38"/><path class="cls-2" d="m70.66,124.48v-33.93h61.98c28.83,0,52.56,23.54,52.56,52.56s-23.73,52.56-52.56,52.56h-28.06v26.97h-33.93v-60.51h61.98c24.52,0,24.52-37.66,0-37.66h-61.98Z"/></svg>